<?xml version="1.0" standalone="no"?>
<!DOCTYPE svg PUBLIC "-//W3C//DTD SVG 20010904//EN"
 "http://www.w3.org/TR/2001/REC-SVG-20010904/DTD/svg10.dtd">
<svg version="1.0" xmlns="http://www.w3.org/2000/svg"
 width="1213.000000pt" height="1030.000000pt" viewBox="0 0 1213.000000 1030.000000"
 preserveAspectRatio="xMidYMid meet">

<g transform="translate(0.000000,1030.000000) scale(0.100000,-0.100000)"
fill="#000000" stroke="none">
<path d="M335 10213 c-11 -2 -46 -13 -78 -25 -70 -25 -127 -85 -154 -161 -17
-50 -18 -253 -18 -4877 0 -3827 3 -4833 12 -4866 25 -81 99 -158 181 -186 51
-18 11434 -25 11527 -8 74 14 147 53 179 95 14 18 34 60 45 93 l21 61 0 4811
0 4811 -21 61 c-11 33 -31 75 -45 93 -30 40 -103 79 -172 94 -38 8 -1616 11
-5755 10 -3136 -1 -5711 -3 -5722 -6z m11484 -48 c73 -19 131 -62 161 -121
l25 -49 0 -4845 0 -4845 -30 -54 c-35 -64 -93 -105 -169 -121 -35 -7 -1783 -9
-5766 -8 -4715 3 -5722 5 -5754 16 -21 8 -58 32 -82 54 -35 32 -48 55 -64 107
-20 66 -20 92 -18 4876 l3 4810 27 55 c32 63 78 100 153 123 45 14 671 16
5755 16 4950 1 5712 -1 5759 -14z"/>
<path d="M4625 5945 l-25 -24 0 -494 c0 -549 -4 -521 66 -521 62 0 69 18 66
158 l-3 124 56 47 c30 26 57 46 59 44 2 -2 11 -20 21 -39 39 -76 237 -326 266
-335 26 -9 67 19 75 50 7 30 0 42 -111 185 -44 58 -100 132 -123 164 l-42 59
57 51 c125 108 163 151 163 182 0 36 -16 54 -46 54 -21 0 -198 -139 -321 -251
-24 -22 -45 -39 -48 -39 -3 0 -2 128 2 283 6 282 6 284 -15 305 -29 29 -67 28
-97 -3z"/>
<path d="M1388 5870 c-22 -14 -23 -63 -2 -84 12 -13 39 -16 130 -16 l114 0 0
-337 c0 -186 -3 -355 -6 -375 l-7 -38 -106 0 c-80 0 -112 -4 -129 -16 -28 -20
-30 -69 -3 -84 29 -15 623 -14 639 2 16 16 16 70 0 86 -8 8 -53 12 -137 12
l-124 0 6 128 c4 70 7 237 7 371 l0 243 116 -3 c105 -4 117 -2 130 15 20 28
17 60 -7 82 -20 18 -42 19 -313 22 -193 1 -297 -1 -308 -8z"/>
<path d="M3115 5833 c-14 -13 -17 -34 -15 -112 4 -140 7 -131 -48 -131 -58 0
-72 -12 -72 -62 0 -44 19 -58 80 -58 l41 0 -7 -47 c-4 -27 -7 -115 -8 -198 0
-164 9 -203 62 -258 55 -58 97 -72 212 -72 86 0 114 4 152 22 50 23 73 52 63
82 -12 38 -31 44 -84 26 -64 -21 -156 -24 -198 -6 -18 7 -43 30 -55 50 -22 34
-23 44 -20 210 2 96 5 178 8 183 3 4 72 8 153 8 159 0 171 4 171 51 0 53 -17
59 -176 59 l-144 0 0 115 0 115 -32 20 c-40 24 -61 25 -83 3z"/>
<path d="M8685 5833 c-14 -13 -17 -34 -15 -112 4 -140 7 -131 -48 -131 -58 0
-72 -12 -72 -62 0 -44 19 -58 80 -58 l41 0 -7 -47 c-4 -27 -7 -115 -8 -198 0
-164 9 -203 62 -258 55 -58 97 -72 212 -72 86 0 114 4 152 22 50 23 73 52 63
82 -12 38 -31 44 -84 26 -64 -21 -156 -24 -198 -6 -18 7 -43 30 -55 50 -22 34
-23 44 -20 210 2 96 5 178 8 183 3 4 72 8 153 8 159 0 171 4 171 51 0 53 -17
59 -176 59 l-144 0 0 115 0 115 -32 20 c-40 24 -61 25 -83 3z"/>
<path d="M4041 5615 c-64 -18 -105 -42 -148 -87 -95 -99 -141 -322 -93 -451
55 -146 206 -224 325 -167 47 22 59 32 101 82 l32 36 11 -59 c8 -40 19 -63 34
-74 27 -19 67 -19 92 -1 20 14 20 18 -10 206 -18 115 -19 171 -4 315 l12 109
-37 32 c-21 18 -54 41 -74 50 -49 24 -170 28 -241 9z m179 -125 l39 -20 -5
-52 c-3 -29 -9 -97 -13 -151 -7 -87 -12 -103 -42 -148 -40 -58 -110 -109 -152
-109 -48 0 -102 62 -117 135 -15 73 -7 161 20 223 53 119 171 173 270 122z"/>
<path d="M5637 5619 c-169 -40 -266 -199 -255 -417 5 -81 10 -102 39 -160 38
-75 95 -125 162 -143 25 -7 79 -9 135 -6 112 7 183 36 237 99 40 47 45 86 15
113 -32 29 -67 22 -114 -24 -105 -103 -257 -106 -313 -6 -39 70 -35 76 75 114
312 107 408 202 322 317 -72 99 -185 141 -303 113z m143 -125 c17 -15 37 -39
45 -54 14 -27 14 -29 -18 -47 -60 -35 -251 -103 -291 -103 -21 0 18 121 51
161 63 74 154 92 213 43z"/>
<path d="M7965 5613 c-142 -51 -216 -175 -216 -363 0 -139 46 -248 132 -310
57 -41 110 -53 197 -47 191 14 286 140 286 377 0 162 -55 277 -159 328 -67 34
-170 40 -240 15z m164 -108 c74 -38 108 -129 98 -266 -6 -89 -37 -169 -79
-204 -24 -21 -40 -25 -91 -25 -106 0 -147 40 -167 163 -19 123 14 262 76 317
29 25 43 30 85 30 27 0 63 -7 78 -15z"/>
<path d="M9599 5614 c-152 -46 -239 -183 -239 -375 0 -156 54 -268 154 -322
35 -19 56 -22 151 -22 63 0 126 6 147 13 75 27 158 106 158 153 0 28 -34 62
-63 62 -17 0 -44 -16 -78 -47 -131 -118 -309 -90 -330 52 -4 21 8 27 139 77
178 67 238 100 280 154 52 68 40 115 -48 194 -81 72 -170 93 -271 61z m141
-109 c35 -18 74 -71 66 -90 -3 -8 -27 -25 -53 -38 -47 -24 -232 -87 -254 -87
-17 0 -2 74 26 130 23 44 58 79 95 93 29 11 91 7 120 -8z"/>
<path d="M10502 5619 c-221 -28 -339 -126 -311 -257 15 -70 48 -86 309 -157
140 -38 157 -61 93 -125 -67 -66 -208 -101 -261 -64 -12 8 -31 32 -42 53 -21
41 -36 51 -79 51 -81 0 -81 -116 -1 -184 94 -79 309 -70 437 17 64 45 113 125
113 187 0 99 -66 144 -293 197 -59 14 -117 33 -129 43 -50 40 21 99 146 120
80 14 92 11 101 -30 8 -38 51 -90 74 -90 35 0 61 29 61 68 0 45 -26 150 -42
169 -12 14 -76 15 -176 2z"/>
<path d="M7005 5600 c-14 -16 -20 -48 -27 -167 -11 -172 -5 -456 11 -495 13
-35 55 -47 90 -27 l26 15 -3 199 -4 200 32 48 c47 69 111 110 181 115 53 4 58
2 74 -22 11 -16 21 -60 26 -114 40 -413 39 -406 65 -429 30 -28 65 -29 87 -5
21 23 22 85 2 212 -8 52 -17 138 -21 190 -14 226 -75 309 -219 297 -69 -5
-153 -44 -186 -85 l-19 -25 0 45 c0 24 -5 49 -12 56 -19 19 -82 15 -103 -8z"/>
</g>
</svg>
